<svg xmlns="http://www.w3.org/2000/svg" viewBox="0 0 6.8791665 6.8791669" height="26" width="26"><g stroke="#000" stroke-linecap="round" stroke-linejoin="round" paint-order="markers stroke fill"><path d="M3.4240803 1.4479736A1.99166657 1.99166657 0 001.4479736 3.4395833 1.99166657 1.99166657 0 003.4395833 5.43119303a1.99166657 1.99166657 0 001.05885005-.30437428 1.99166657 1.99166657 0 01-.93379315-1.68723546 1.99166657 1.99166657 0 01.93275969-1.68723549 1.99166657 1.99166657 0 00-1.05781659-.3043742 1.99166657 1.99166657 0 00-.015503 0z" opacity=".999" fill="#9c9c9c" stroke-width=".24999687956"/><circle r=".20611735" cy="4.5861111" cx="2.6022315" opacity=".998" fill="none" stroke-width=".25"/><circle r=".40794057" cy="2.426173" cx="3.0788779" opacity=".998" fill="none" stroke-width=".25"/><circle r=".06441167" cy="3.0960543" cx="1.8937031" opacity=".998" fill="none" stroke-width=".25"/><path d="M5.6768155 2.8512352l.1968894.3989414.440258.0639732-.3185737.3105326.075205.4384791-.3937787-.2070217-.3937788.2070217.0752051-.4384791-.3185737-.3105326.440258-.0639732z" opacity=".998" fill="#ff0" stroke-width=".125"/></g></svg>