<svg xmlns="http://www.w3.org/2000/svg" width="26" height="26" viewBox="0 0 6.8791665 6.8791669"><g fill="#ff0" stroke="#000" stroke-linecap="round" stroke-linejoin="round" paint-order="markers stroke fill"><circle cx="3.4395833" cy="3.4395833" r="1.9916666" opacity=".999" stroke-width=".25"/><path d="M3.503995.03890771l.6431282 1.11393089H2.8608666z" transform="matrix(.83367 0 0 .82957 .51839578 .17177727)" opacity=".999" stroke-width=".300618"/><path transform="matrix(0 .83367 -.82955 0 6.7073886 .51839745)" d="M3.503995.03890771l.6431282 1.11393089H2.8608666z" opacity=".998" stroke-width=".300622"/><path transform="matrix(-.83367 0 0 -.82957 6.3607695 6.707393)" d="M3.503995.03890771l.6431282 1.11393089H2.8608666z" opacity=".999" stroke-width=".300618"/><path d="M3.503995.03890771l.6431282 1.11393089H2.8608666z" transform="matrix(0 -.83367 .82955 0 .1717767 6.3607728)" opacity=".998" stroke-width=".300622"/><path transform="matrix(.5895 .5895 -.5866 .5866 3.6893059 -.93207352)" d="M3.503995.03890771l.6431282 1.11393089H2.8608666z" opacity=".999" stroke-width=".300618"/><path d="M3.503995.03890771l.6431282 1.11393089H2.8608666z" transform="matrix(-.5895 .5895 -.58658 -.58658 7.8204872 3.6893027)" opacity=".998" stroke-width=".300622"/><path d="M3.503995.03890771l.6431282 1.11393089H2.8608666z" transform="matrix(-.5895 -.5895 .5866 -.5866 3.1991097 7.8204867)" opacity=".999" stroke-width=".300618"/><path transform="matrix(.5895 -.5895 .58658 .58658 -.93207148 3.1991104)" d="M3.503995.03890771l.6431282 1.11393089H2.8608666z" opacity=".998" stroke-width=".300622"/></g></svg>